<svg xmlns="http://www.w3.org/2000/svg" viewBox="0 0 1280 640" width="1280" height="640">
  <defs>
    <linearGradient id="bg" x1="0%" y1="0%" x2="100%" y2="100%">
      <stop offset="0%" stop-color="#0a0f1d"/>
      <stop offset="50%" stop-color="#0e172e"/>
      <stop offset="100%" stop-color="#070a12"/>
    </linearGradient>
    <linearGradient id="textGrad" x1="0%" y1="0%" x2="100%" y2="0%">
      <stop offset="0%" stop-color="#4facfe"/>
      <stop offset="50%" stop-color="#00f2fe"/>
      <stop offset="100%" stop-color="#38ef7d"/>
    </linearGradient>
    <linearGradient id="badgeGrad1" x1="0%" y1="0%" x2="100%" y2="100%">
      <stop offset="0%" stop-color="#1e293b"/>
      <stop offset="100%" stop-color="#0f172a"/>
    </linearGradient>
    <filter id="glow" x="-20%" y="-20%" width="140%" height="140%">
      <feGaussianBlur stdDeviation="8" result="blur"/>
      <feMerge>
        <feMergeNode in="blur"/>
        <feMergeNode in="SourceGraphic"/>
      </feMerge>
    </filter>
  </defs>

  <!-- Background -->
  <rect width="1280" height="640" fill="url(#bg)"/>

  <!-- Tech Grid Background -->
  <g opacity="0.08" stroke="#38bdf8" stroke-width="1">
    <path d="M0,80 H1280 M0,160 H1280 M0,240 H1280 M0,320 H1280 M0,400 H1280 M0,480 H1280 M0,560 H1280"/>
    <path d="M160,0 V640 M320,0 V640 M480,0 V640 M640,0 V640 M800,0 V640 M960,0 V640 M1120,0 V640"/>
  </g>

  <!-- Glowing Accent Orbs -->
  <circle cx="1120" cy="160" r="180" fill="#38bdf8" opacity="0.12" filter="url(#glow)"/>
  <circle cx="160" cy="480" r="140" fill="#3b82f6" opacity="0.10" filter="url(#glow)"/>

  <!-- Logo Icon Container -->
  <g transform="translate(100, 110)">
    <rect width="96" height="96" rx="24" fill="#1e293b" stroke="#38bdf8" stroke-width="2" filter="url(#glow)"/>
    <path d="M48,22 L72,68 L24,68 Z" fill="none" stroke="url(#textGrad)" stroke-width="4" stroke-linejoin="round"/>
    <circle cx="48" cy="48" r="6" fill="#00f2fe"/>
  </g>

  <!-- Title & Subtitle -->
  <text x="220" y="155" font-family="-apple-system, BlinkMacSystemFont, 'Segoe UI', Roboto, 'PingFang SC', sans-serif" font-size="46" font-weight="900" fill="#ffffff" letter-spacing="1">
    Google Antigravity <tspan fill="url(#textGrad)">汉化补丁</tspan>
  </text>
  <text x="220" y="195" font-family="-apple-system, BlinkMacSystemFont, 'Segoe UI', Roboto, sans-serif" font-size="20" font-weight="600" fill="#94a3b8" letter-spacing="0.5">
    PERMANENT CHINESE LOCALIZATION &amp; SELF-HEALING ARCHITECTURE
  </text>

  <!-- Core Value Proposition -->
  <text x="100" y="295" font-family="-apple-system, BlinkMacSystemFont, 'Segoe UI', Roboto, 'PingFang SC', sans-serif" font-size="28" font-weight="700" fill="#f1f5f9">
    🚀 真正永久自愈 · 深度无死角汉化 · 官方更新零感跟随
  </text>
  <text x="100" y="340" font-family="-apple-system, BlinkMacSystemFont, 'Segoe UI', Roboto, 'PingFang SC', sans-serif" font-size="18" font-weight="400" fill="#94a3b8">
    独创四级自愈引擎（ASAR内存原位流式注入 + 官方更新实时劫持 + 毫秒级持久守卫 + 离线降级容灾）
  </text>

  <!-- Badges Row -->
  <g transform="translate(100, 410)">
    <!-- Badge 1 -->
    <rect x="0" y="0" width="240" height="70" rx="14" fill="url(#badgeGrad1)" stroke="#334155" stroke-width="1.5"/>
    <text x="20" y="32" font-family="sans-serif" font-size="14" font-weight="700" fill="#38bdf8">100% 覆盖率</text>
    <text x="20" y="52" font-family="sans-serif" font-size="13" fill="#cbd5e1">动态额度/计时/模型用量</text>

    <!-- Badge 2 -->
    <rect x="260" y="0" width="240" height="70" rx="14" fill="url(#badgeGrad1)" stroke="#334155" stroke-width="1.5"/>
    <text x="280" y="32" font-family="sans-serif" font-size="14" font-weight="700" fill="#4ade80">极速原位注入</text>
    <text x="280" y="52" font-family="sans-serif" font-size="13" fill="#cbd5e1">&lt;50ms 零进程中断体验</text>

    <!-- Badge 3 -->
    <rect x="520" y="0" width="240" height="70" rx="14" fill="url(#badgeGrad1)" stroke="#334155" stroke-width="1.5"/>
    <text x="540" y="32" font-family="sans-serif" font-size="14" font-weight="700" fill="#fbbf24">103/103 全绿</text>
    <text x="540" y="52" font-family="sans-serif" font-size="13" fill="#cbd5e1">工业级高对抗全矩阵 CI</text>

    <!-- Badge 4 -->
    <rect x="780" y="0" width="240" height="70" rx="14" fill="url(#badgeGrad1)" stroke="#334155" stroke-width="1.5"/>
    <text x="800" y="32" font-family="sans-serif" font-size="14" font-weight="700" fill="#c084fc">跨版本高韧性</text>
    <text x="800" y="52" font-family="sans-serif" font-size="13" fill="#cbd5e1">Win / macOS / Linux 通用</text>
  </g>

  <!-- Footer Info -->
  <g transform="translate(100, 540)">
    <text x="0" y="30" font-family="Consolas, Monaco, monospace" font-size="16" fill="#38bdf8">
      irm https://raw.githubusercontent.com/good9527/Antigravity-Chinese-Patch/main/install.ps1 | iex
    </text>
    <text x="960" y="30" font-family="sans-serif" font-size="15" font-weight="600" fill="#64748b">
      github.com/good9527
    </text>
  </g>
</svg>
